<?xml version="1.0" encoding="UTF-8" standalone="no" ?>
<!DOCTYPE svg PUBLIC "-//W3C//DTD SVG 1.1//EN" "http://www.w3.org/Graphics/SVG/1.1/DTD/svg11.dtd">
<svg xmlns="http://www.w3.org/2000/svg" xmlns:xlink="http://www.w3.org/1999/xlink" version="1.1" width="135.97875" height="181.6884" xml:space="preserve">
<desc>Created with Fabric.js 1.6.0-rc.1</desc>
<defs></defs>
<g style="stroke: none; stroke-width: 1; stroke-dasharray: none; stroke-linecap: butt; stroke-linejoin: miter; stroke-miterlimit: 10; fill: none; fill-rule: nonzero; opacity: 1;" transform="translate(9.999999999999993 10.000000000000007) scale(1.85 1.85)" >
  <path d="M 2.104 48.996 c 16.101 0 19.395 -9.139 27.305 -12.381 c 4.572 -1.874 11.713 -1.687 17.07 1.433 c 5.789 3.37 8.663 7.574 10.414 10.948 c -5.963 5.965 -14.358 10.069 -24.863 10.889 C 24.745 60.451 12.339 59.232 2.104 48.996" style="stroke: none; stroke-width: 1; stroke-dasharray: none; stroke-linecap: butt; stroke-linejoin: miter; stroke-miterlimit: 10; fill: #82f098; fill-rule: nonzero; opacity: 1;" transform=" matrix(1 0 0 1 0 0) " stroke-linecap="round" />
  <path d="M 57.787 47.446 c -8.051 -13.942 -17.613 -12.225 -24.375 -17.455 c -3.909 -3.021 -7.319 -9.3 -7.295 -15.499 C 26.142 7.795 28.345 3.201 30.392 0 c 8.146 2.183 15.898 7.399 21.859 16.089 C 56.385 22.112 61.533 33.465 57.787 47.446" style="stroke: none; stroke-width: 1; stroke-dasharray: none; stroke-linecap: butt; stroke-linejoin: miter; stroke-miterlimit: 10; fill: #00e1ff; fill-rule: nonzero; opacity: 1;" transform=" matrix(1 0 0 1 0 0) " stroke-linecap="round" />
  <path d="M 28.603 0 c -8.049 13.942 -1.782 21.366 -2.928 29.836 c -0.665 4.898 -4.396 10.988 -9.777 14.069 c -5.812 3.326 -10.892 3.714 -14.688 3.541 c -2.184 -8.145 -1.541 -17.466 3.002 -26.974 C 7.362 13.88 14.623 3.745 28.603 0" style="stroke: none; stroke-width: 1; stroke-dasharray: none; stroke-linecap: butt; stroke-linejoin: miter; stroke-miterlimit: 10; fill: #80e1f5; fill-rule: nonzero; opacity: 1;" transform=" matrix(1 0 0 1 0 0) " stroke-linecap="round" />
</g>
  <g transform="translate(68.59 140.83) scale(1.2 1.2)">
   <text font-family="Interlude" font-size="40" font-weight="normal" style="stroke: none; stroke-width: 1; stroke-dasharray: none; stroke-linecap: butt; stroke-linejoin: miter; stroke-miterlimit: 10; fill: #5f9e96; fill-rule: nonzero; opacity: 1;" ><tspan x="-48.32" y="8.98" style="stroke: none; stroke-width: 0; stroke-dasharray: none; stroke-linecap: butt; stroke-linejoin: miter; stroke-miterlimit: 4; fill: #5f9e96; fill-rule: ; opacity: 1;">f</tspan><tspan x="-35.21" y="8.98" style="stroke: none; stroke-width: 0; stroke-dasharray: none; stroke-linecap: butt; stroke-linejoin: miter; stroke-miterlimit: 4; fill: #5f9e96; fill-rule: ; opacity: 1;">o</tspan><tspan x="-12.77" y="8.98" style="stroke: none; stroke-width: 0; stroke-dasharray: none; stroke-linecap: butt; stroke-linejoin: miter; stroke-miterlimit: 4; fill: #5f9e96; fill-rule: ; opacity: 1;">c</tspan><tspan x="4.9" y="8.98" style="stroke: none; stroke-width: 0; stroke-dasharray: none; stroke-linecap: butt; stroke-linejoin: miter; stroke-miterlimit: 4; fill: #5f9e96; fill-rule: ; opacity: 1;">u</tspan><tspan x="28.32" y="8.98" style="stroke: none; stroke-width: 0; stroke-dasharray: none; stroke-linecap: butt; stroke-linejoin: miter; stroke-miterlimit: 4; fill: #5f9e96; fill-rule: ; opacity: 1;">s</tspan></text>
 </g>
  <g transform="translate(64.76 67.73)">
   <text font-family="ADAMCG PRO" font-size="40" font-weight="normal" style="stroke: none; stroke-width: 1; stroke-dasharray: none; stroke-linecap: butt; stroke-linejoin: miter; stroke-miterlimit: 10; fill: #000000; fill-rule: nonzero; opacity: 1;" ><tspan x="0" y="8.98" fill="#000000"></tspan></text>
 </g>
</svg>